HIERARCHY
ROOT Hips
{
	OFFSET 0.000000 0.000000 0.000000
	CHANNELS 6 Xposition Yposition Zposition Zrotation Yrotation Xrotation 
	JOINT LeftUpLeg_virtual
	{
		OFFSET 0.000000 0.000000 0.000000
		CHANNELS 3 Zrotation Yrotation Xrotation
		JOINT LeftUpLeg
		{
			OFFSET 8.479694 -4.795517 -0.379053
			CHANNELS 3 Zrotation Yrotation Xrotation
			JOINT LeftLeg
			{
				OFFSET 0.485052 -32.551468 0.112863
				CHANNELS 3 Zrotation Yrotation Xrotation
				JOINT LeftFoot
				{
					OFFSET 0.438033 -32.635670 -3.012641
					CHANNELS 3 Zrotation Yrotation Xrotation
					JOINT LeftToeBase
					{
						OFFSET 0.970169 -13.225353 11.864223
						CHANNELS 3 Zrotation Yrotation Xrotation
						End Site
						{
							OFFSET 0.000000 0.000000 0.000000
						}
					}
				}
			}
		}
	}
	JOINT RightUpLeg_virtual
	{
		OFFSET 0.000000 0.000000 0.000000
		CHANNELS 3 Zrotation Yrotation Xrotation
		JOINT RightUpLeg
		{
			OFFSET -8.479694 -4.795517 -0.379053
			CHANNELS 3 Zrotation Yrotation Xrotation
			JOINT RightLeg
			{
				OFFSET -0.484100 -32.551483 0.112903
				CHANNELS 3 Zrotation Yrotation Xrotation
				JOINT RightFoot
				{
					OFFSET -0.438985 -32.635651 -3.012681
					CHANNELS 3 Zrotation Yrotation Xrotation
					JOINT RightToeBase
					{
						OFFSET -0.970169 -13.225354 11.864223
						CHANNELS 3 Zrotation Yrotation Xrotation
						End Site
						{
							OFFSET 0.000000 0.000000 0.000000
						}
					}
				}
			}
		}
	}
	JOINT Spine_virtual
	{
		OFFSET 0.000000 0.000000 0.000000
		CHANNELS 3 Zrotation Yrotation Xrotation
		JOINT Spine
		{
			OFFSET 0.000000 7.722015 1.166203
			CHANNELS 3 Zrotation Yrotation Xrotation
			JOINT Spine1
			{
				OFFSET 0.000000 12.024086 0.248766
				CHANNELS 3 Zrotation Yrotation Xrotation
				JOINT Spine2
				{
					OFFSET -0.000000 11.503036 -0.491240
					CHANNELS 3 Zrotation Yrotation Xrotation
					JOINT Neck_virtual
					{
						OFFSET 0.000000 0.000000 0.000000
						CHANNELS 3 Zrotation Yrotation Xrotation
						JOINT Neck
						{
							OFFSET 0.000000 18.430687 -3.123054
							CHANNELS 3 Zrotation Yrotation Xrotation
							JOINT Head
							{
								OFFSET -0.000000 9.051071 1.034021
								CHANNELS 3 Zrotation Yrotation Xrotation
								End Site
								{
									OFFSET 0.000000 0.000000 0.000000
								}
							}
						}
					}
					JOINT LeftShoulder_virtual
					{
						OFFSET 0.000000 0.000000 0.000000
						CHANNELS 3 Zrotation Yrotation Xrotation
						JOINT LeftShoulder
						{
							OFFSET 6.197824 13.665230 -4.064723
							CHANNELS 3 Zrotation Yrotation Xrotation
							JOINT LeftArm
							{
								OFFSET 7.778132 -0.187073 -1.709282
								CHANNELS 3 Zrotation Yrotation Xrotation
								JOINT LeftForeArm
								{
									OFFSET 21.954697 0.000000 -2.041093
									CHANNELS 3 Zrotation Yrotation Xrotation
									JOINT LeftHand
									{
										OFFSET 22.992908 0.000000 -0.870901
										CHANNELS 3 Zrotation Yrotation Xrotation
										End Site
										{
											OFFSET 0.000000 0.000000 0.000000
										}
									}
								}
							}
						}
					}
					JOINT RightShoulder_virtual
					{
						OFFSET 0.000000 0.000000 0.000000
						CHANNELS 3 Zrotation Yrotation Xrotation
						JOINT RightShoulder
						{
							OFFSET -6.197824 13.665230 -4.064723
							CHANNELS 3 Zrotation Yrotation Xrotation
							JOINT RightArm
							{
								OFFSET -7.778132 -0.187073 -1.709282
								CHANNELS 3 Zrotation Yrotation Xrotation
								JOINT RightForeArm
								{
									OFFSET -21.954697 0.000000 -2.041093
									CHANNELS 3 Zrotation Yrotation Xrotation
									JOINT RightHand
									{
										OFFSET -22.992908 0.000000 -0.870901
										CHANNELS 3 Zrotation Yrotation Xrotation
										End Site
										{
											OFFSET 0.000000 0.000000 0.000000
										}
									}
								}
							}
						}
					}
				}
			}
		}
	}
}
MOTION
Frames: 8
Frame Time: 0.033333
-59.866226 75.645836 131.899368 0.336300 56.648926 0.564936 -2.753829 -8.443226 14.007522 -5.763675 -5.590639 -31.862040 12.492718 5.932787 33.787088 -5.946454 -6.637013 -16.370256 0.000000 0.000000 0.000000 3.293235 -9.062633 10.489675 -5.535009 4.440295 -54.041283 -0.161018 3.651453 29.495649 6.291375 15.401995 4.583483 0.000000 0.000000 0.000000 2.715773 -4.101666 1.675715 1.807558 5.583934 -4.918463 1.018826 -1.219240 7.492828 0.012367 -0.014179 0.068575 1.593404 -0.319418 6.360832 6.412623 -2.282090 0.497499 0.000000 0.000000 0.000000 2.581501 0.399067 2.798021 0.904189 -2.948458 -0.148773 -14.634580 -4.481851 -52.609969 -17.860866 -47.758097 13.604717 0.000000 0.000000 0.000000 -1.752263 1.915865 1.806170 14.283402 7.702596 4.259277 26.612053 42.508304 24.338614 173.383505 69.075602 -177.311643 0.000000 0.000000 0.000000 
-57.951481 75.326317 133.932022 1.309441 59.635925 1.203386 -2.390350 -8.468818 13.363545 -6.077098 -5.379153 -30.125625 12.293263 5.955276 35.276769 -10.183064 -7.621539 -16.420082 0.000000 0.000000 0.000000 3.774138 -8.574831 9.712753 -4.960033 5.379403 -52.223401 0.299629 3.810664 30.072315 6.822955 16.503757 4.549919 0.000000 0.000000 0.000000 2.590912 -4.034492 1.206122 1.307216 5.332172 -5.013078 0.930920 -1.276595 7.810168 0.053683 -0.048853 0.057889 1.724495 -0.276879 6.708151 7.477799 -2.576695 0.755965 0.000000 0.000000 0.000000 2.719935 0.408088 3.251866 0.410945 -2.672475 -0.182002 -17.264766 -3.505001 -52.298171 -18.728015 -49.626013 14.680370 0.000000 0.000000 0.000000 -1.774379 1.846486 2.050292 14.992726 7.414516 4.405163 27.769364 41.524050 26.832688 172.852622 69.175104 -177.936332 0.000000 0.000000 0.000000 
-55.943050 75.244942 135.943771 2.046630 62.980573 1.369407 -2.709202 -8.230077 12.855732 -4.184046 -6.502837 -28.152300 9.884615 5.286515 36.334899 -8.014699 -11.031833 -16.087587 0.000000 0.000000 0.000000 4.393963 -7.822929 8.914834 -4.112780 6.182657 -50.190750 0.557119 3.518685 31.564305 6.466539 16.742245 2.943923 0.000000 0.000000 0.000000 2.500683 -3.950366 1.286979 0.748298 5.024042 -5.063554 0.895597 -1.381332 8.091165 0.101619 -0.148731 -0.024804 1.761394 -0.414506 6.652147 8.301982 -2.792953 1.070151 0.000000 0.000000 0.000000 2.720784 0.321945 3.288371 0.353570 -2.369771 -0.233001 -19.408541 -2.141191 -52.142948 -19.335663 -50.947139 15.294356 0.000000 0.000000 0.000000 -1.848779 1.734476 2.090270 15.804045 7.145939 4.167750 28.410513 40.780474 28.406606 171.728523 69.169408 -179.169946 0.000000 0.000000 0.000000 
-53.803875 75.343613 137.935898 1.748052 66.372780 0.313284 -2.712561 -7.887775 12.583788 -2.504826 -7.425425 -26.010334 7.749297 3.490344 37.143238 -8.585669 -13.130115 -14.975395 0.000000 0.000000 0.000000 4.786883 -7.255240 8.114774 -3.277148 6.436441 -47.959174 0.735292 3.421202 32.423407 5.881798 16.795179 0.997501 0.000000 0.000000 0.000000 2.541888 -3.774653 1.605308 0.356463 4.549012 -4.959896 0.981657 -1.524275 8.286996 0.052610 -0.243219 -0.124918 1.770238 -0.330963 6.718852 8.726782 -2.746417 1.462582 0.000000 0.000000 0.000000 2.762921 0.431745 3.297960 0.702088 -2.254502 -0.445594 -20.310532 -1.130589 -52.358424 -19.839970 -50.905837 15.548366 0.000000 0.000000 0.000000 -1.753214 1.834003 2.147345 16.396696 6.817943 3.978613 27.482769 40.907017 28.040464 171.001968 69.058622 179.987233 0.000000 0.000000 0.000000 
-51.640549 75.523888 139.873856 1.834195 69.680613 0.112338 -3.012638 -8.694497 12.372136 -0.619904 -8.744565 -24.455246 6.160310 2.171837 37.826397 -9.398897 -14.410237 -12.792093 0.000000 0.000000 0.000000 4.931788 -6.981604 7.426139 -2.528768 6.311577 -45.673209 0.917948 3.589207 32.286803 5.314886 16.783329 -0.676014 0.000000 0.000000 0.000000 2.327080 -3.736619 1.718187 -0.090380 4.245456 -4.948592 1.076849 -1.406487 8.396434 0.021513 -0.201494 -0.296572 1.843634 -0.410525 6.641307 9.048790 -2.923414 1.391212 0.000000 0.000000 0.000000 2.830043 0.383611 2.926351 1.367149 -2.572485 -0.343790 -20.122635 -0.669882 -52.908647 -20.169525 -50.189856 15.776479 0.000000 0.000000 0.000000 -1.731224 1.553093 1.746042 16.977076 6.362213 3.345652 25.747788 41.495308 25.675455 169.415111 69.043322 178.286119 0.000000 0.000000 0.000000 
-49.399540 75.693542 141.674622 1.868443 72.695028 0.380753 -3.221737 -8.728421 11.823327 1.276569 -7.553660 -23.517571 5.567576 2.055333 39.726668 -9.898242 -14.881898 -10.110431 0.000000 0.000000 0.000000 4.720706 -7.098529 7.124095 -1.946438 5.692791 -43.241982 1.092529 4.095397 31.470114 4.766063 16.685553 -1.994670 0.000000 0.000000 0.000000 2.026243 -3.637921 1.458630 -0.372615 3.866613 -5.060091 1.232934 -1.287023 8.335121 0.004309 -0.157908 -0.035143 2.056214 0.008254 6.576519 9.125438 -2.954716 1.332515 0.000000 0.000000 0.000000 2.986411 0.375334 3.178185 2.305713 -3.075174 -0.507742 -19.204002 -0.834682 -54.384493 -19.512051 -48.113809 14.807806 0.000000 0.000000 0.000000 -1.524453 1.845519 1.960465 16.690710 6.131284 2.801021 22.881735 42.451149 21.441637 170.306723 68.874432 179.015734 0.000000 0.000000 0.000000 
-47.109825 75.756844 143.365234 2.099086 75.733800 1.108887 -3.301876 -8.050864 11.250600 3.732192 -6.487866 -23.680047 5.253255 1.999183 43.740156 -10.106011 -15.051869 -7.415740 0.000000 0.000000 0.000000 4.392790 -7.191669 6.967694 -1.384989 4.942998 -41.104065 1.273632 4.704967 30.505472 4.104984 16.500298 -3.448646 0.000000 0.000000 0.000000 1.712915 -3.506312 1.091695 -0.502178 3.439174 -5.140849 1.384601 -1.193944 8.332132 -0.004195 -0.100869 -0.071093 2.226414 0.013253 6.607035 8.785719 -2.990943 0.704828 0.000000 0.000000 0.000000 3.125763 0.556464 3.004954 3.115734 -3.680470 -0.593773 -17.813605 -1.693134 -54.951464 -18.810896 -46.092333 14.069045 0.000000 0.000000 0.000000 -1.450724 2.144744 1.839224 16.393776 5.995074 2.164263 19.709430 43.140318 16.640610 170.073814 68.890032 178.656848 0.000000 0.000000 0.000000 
-44.879406 75.661560 144.885696 2.578606 78.634274 2.208743 -3.112367 -7.286375 10.635600 6.621888 -5.596208 -25.200828 5.212092 1.859633 49.865073 -9.568319 -14.526890 -4.608273 0.000000 0.000000 0.000000 3.955044 -7.310509 7.145079 -0.802962 4.017087 -39.229010 1.428464 5.382561 30.074440 3.353448 16.248936 -5.165482 0.000000 0.000000 0.000000 1.408441 -3.233397 0.784317 -0.494170 3.082063 -5.232831 1.512374 -1.076357 8.233110 -0.003368 -0.027261 -0.067933 2.299968 -0.073791 6.626364 7.841770 -2.669321 0.046648 0.000000 0.000000 0.000000 3.343765 0.646624 3.116706 3.930955 -4.528800 -0.554790 -16.792978 -2.978317 -55.391704 -18.239837 -44.297533 13.617951 0.000000 0.000000 0.000000 -1.252765 2.157278 1.905058 15.798088 6.043926 1.627265 17.577623 43.330717 13.177936 170.030989 69.350401 178.458185 0.000000 0.000000 0.000000 
